<svg xmlns="http://www.w3.org/2000/svg" xmlns:xlink="http://www.w3.org/1999/xlink" viewBox="0 0 100 125" version="1.1" x="0px" y="0px"><title>Gear 1.4</title><desc>Created with Sketch.</desc><g stroke="none" stroke-width="1" fill="none" fill-rule="evenodd"><g fill="#000000"><path d="M36.6703746,70.0365605 C35.4739823,71.1858955 33.5556228,71.1686326 32.3821731,69.9945755 L30.0060051,67.6171776 C28.8340891,66.4446549 28.8087382,64.5316037 29.9648618,63.3281449 L30.0647318,63.2241859 C31.2139249,62.0279413 31.633855,59.8229005 30.9944929,58.2793438 L30.7066969,57.5845428 C30.0709966,56.0498266 28.2212017,54.7789229 26.5527251,54.7454518 L26.4085962,54.7425604 C24.7501212,54.70929 23.4053144,53.3406017 23.4048849,51.6806637 L23.4040152,48.319385 C23.4035862,46.6616165 24.7378612,45.2909559 26.4065437,45.2574807 L26.5506903,45.254589 C28.20937,45.2213145 30.0657715,43.9588036 30.7052598,42.4149423 L30.9931126,41.7200041 C31.6289383,40.1849851 31.219588,37.9779537 30.0633218,36.7743464 L29.9634395,36.6703746 C28.8141045,35.4739823 28.8313674,33.5556228 30.0054245,32.3821731 L32.3828224,30.0060051 C33.5553451,28.8340891 35.4683963,28.8087382 36.6718551,29.9648618 L36.7758141,30.0647318 C37.9720587,31.2139249 40.1770995,31.633855 41.7206562,30.9944929 L42.4154572,30.7066969 C43.9501734,30.0709966 45.2210771,28.2212017 45.2545482,26.5527251 L45.2574396,26.4085962 C45.29071,24.7501212 46.6593983,23.4053144 48.3193363,23.4048849 L51.680615,23.4040152 C53.3383835,23.4035862 54.7090441,24.7378612 54.7425193,26.4065437 L54.745411,26.5506903 C54.7786855,28.20937 56.0411964,30.0657715 57.5850577,30.7052598 L58.2799959,30.9931126 C59.8150149,31.6289383 62.0220463,31.219588 63.2256536,30.0633218 L63.3296254,29.9634395 C64.5260177,28.8141045 66.4443772,28.8313674 67.6178269,30.0054245 L69.9939949,32.3828224 C71.1659109,33.5553451 71.1912618,35.4683963 70.0351382,36.6718551 L69.9352682,36.7758141 C68.7860751,37.9720587 68.366145,40.1770995 69.0055071,41.7206562 L69.2933031,42.4154572 C69.9290034,43.9501734 71.7787983,45.2210771 73.4472749,45.2545482 L73.5914038,45.2574396 C75.2498788,45.29071 76.5946856,46.6593983 76.5951151,48.3193363 L76.5959848,51.680615 C76.5964138,53.3383835 75.2621388,54.7090441 73.5934563,54.7425193 L73.4493097,54.745411 C71.79063,54.7786855 69.9342285,56.0411964 69.2947402,57.5850577 L69.0068874,58.2799959 C68.3710617,59.8150149 68.780412,62.0220463 69.9366782,63.2256536 L70.0365605,63.3296254 C71.1858955,64.5260177 71.1686326,66.4443772 69.9945755,67.6178269 L67.6171776,69.9939949 C66.4446549,71.1659109 64.5316037,71.1912618 63.3281449,70.0351382 L63.2241859,69.9352682 C62.0279413,68.7860751 59.8229005,68.366145 58.2793438,69.0055071 L57.5845428,69.2933031 C56.0498266,69.9290034 54.7789229,71.7787983 54.7454518,73.4472749 L54.7425604,73.5914038 C54.70929,75.2498788 53.3406017,76.5946856 51.6806637,76.5951151 L48.319385,76.5959848 C46.6616165,76.5964138 45.2909559,75.2621388 45.2574807,73.5934563 L45.254589,73.4493097 C45.2213145,71.79063 43.9588036,69.9342285 42.4149423,69.2947402 L41.7200041,69.0068874 C40.1849851,68.3710617 37.9779537,68.780412 36.7743464,69.9366782 L36.6703746,70.0365605 Z M45.0251154,62.0104339 C51.6582949,64.7579868 59.262881,61.6080641 62.0104339,54.9748846 C64.7579868,48.3417051 61.6080641,40.737119 54.9748846,37.9895661 C48.3417051,35.2420132 40.737119,38.3919359 37.9895661,45.0251154 C35.2420132,51.6582949 38.3919359,59.262881 45.0251154,62.0104339 Z"/></g></g><text x="0" y="115" fill="#000000" font-size="5px" font-weight="bold" font-family="'Helvetica Neue', Helvetica, Arial-Unicode, Arial, Sans-serif">Created by Landan Lloyd</text><text x="0" y="120" fill="#000000" font-size="5px" font-weight="bold" font-family="'Helvetica Neue', Helvetica, Arial-Unicode, Arial, Sans-serif">from the Noun Project</text></svg>