<svg xmlns="http://www.w3.org/2000/svg" xmlns:xlink="http://www.w3.org/1999/xlink" version="1.1" x="0px" y="0px" viewBox="0 0 100 125" enable-background="new 0 0 100 100" xml:space="preserve"><path d="M52.796,27l-0.963,55.667h10.001L62.797,27H52.796z M46.21,27H36.209l0.963,55.667h10.001L46.21,27z M69.399,87.95  l-0.003,0.161c0,0.316-0.255,0.573-0.567,0.573H30.18c-0.316,0-0.573-0.257-0.573-0.573L27.642,27H17.638l1.969,61.204  c0.051,5.788,4.774,10.48,10.573,10.48h38.649c5.796,0,10.518-4.693,10.567-10.481L81.365,27H71.361L69.399,87.95z M67.854,10.972  l-2-9.655h-32.7l-2,9.655H11.48v10H88.52v-10H67.854z"/><text x="0" y="115" fill="#000000" font-size="5px" font-weight="bold" font-family="'Helvetica Neue', Helvetica, Arial-Unicode, Arial, Sans-serif">Created by iconomania</text><text x="0" y="120" fill="#000000" font-size="5px" font-weight="bold" font-family="'Helvetica Neue', Helvetica, Arial-Unicode, Arial, Sans-serif">from the Noun Project</text></svg>